<svg xmlns="http://www.w3.org/2000/svg" viewBox="0 0 43.97 43.97"><defs><style>.cls-1{fill:#dcddde;}</style></defs><g id="Layer_2" data-name="Layer 2"><g id="Layer_1-2" data-name="Layer 1"><path class="cls-1" d="M14.66,22A7.33,7.33,0,1,1,22,29.32,7.33,7.33,0,0,1,14.66,22Zm-4,0A11.29,11.29,0,1,0,22,10.7,11.29,11.29,0,0,0,10.7,22ZM31.06,10.23a2.64,2.64,0,1,0,2.63-2.64A2.64,2.64,0,0,0,31.06,10.23ZM13.14,39.9a12.09,12.09,0,0,1-4.09-.75,6.87,6.87,0,0,1-2.53-1.64A6.86,6.86,0,0,1,4.87,35a12.28,12.28,0,0,1-.76-4.09C4,28.59,4,27.89,4,22s0-6.56.12-8.88a12.43,12.43,0,0,1,.74-4.09A7,7,0,0,1,6.46,6.52,6.81,6.81,0,0,1,9,4.87a12.2,12.2,0,0,1,4.08-.76C15.39,4,16.08,4,22,4s6.57,0,8.89.12a12.14,12.14,0,0,1,4.08.74,6.79,6.79,0,0,1,2.53,1.64A6.81,6.81,0,0,1,39.1,9a12.2,12.2,0,0,1,.76,4.08c.11,2.32.14,3,.15,8.88s0,6.57-.11,8.89a12.07,12.07,0,0,1-.75,4.08A7.28,7.28,0,0,1,35,39.1a12.32,12.32,0,0,1-4.07.77c-2.32.1-3,.13-8.89.14s-6.56,0-8.88-.11ZM12.88.15a16.2,16.2,0,0,0-5.33,1A10.75,10.75,0,0,0,3.66,3.73a10.73,10.73,0,0,0-2.53,3.9A16.06,16.06,0,0,0,.12,13C0,15.31,0,16.06,0,22s0,6.72.15,9.06a16.32,16.32,0,0,0,1,5.34,10.84,10.84,0,0,0,2.55,3.89,10.7,10.7,0,0,0,3.9,2.52,16,16,0,0,0,5.33,1c2.35.1,3.1.12,9.07.11s6.72,0,9.06-.15a16.06,16.06,0,0,0,5.34-1,11.17,11.17,0,0,0,6.41-6.44,16.09,16.09,0,0,0,1-5.34c.1-2.35.12-3.1.11-9.07s0-6.71-.15-9.06a15.94,15.94,0,0,0-1-5.33,11.23,11.23,0,0,0-6.44-6.42A16.12,16.12,0,0,0,31,.12C28.66,0,27.92,0,21.94,0s-6.71,0-9.06.15Z"/></g></g></svg>