<svg xmlns="http://www.w3.org/2000/svg" viewBox="0 0 61.13 43.03"><defs><style>.cls-1{fill:#dcddde;fill-rule:evenodd;}</style></defs><g id="Layer_2" data-name="Layer 2"><g id="Layer_1-2" data-name="Layer 1"><path class="cls-1" d="M60.51,9.27h0s-.59-4.22-2.43-6.07A8.81,8.81,0,0,0,52,.62C43.4,0,30.56,0,30.56,0S17.73,0,9.17.62A8.83,8.83,0,0,0,3,3.21C1.19,5.06.61,9.28.61,9.28A93.61,93.61,0,0,0,0,19.18v4.63a93.45,93.45,0,0,0,.61,9.9S1.2,37.93,3,39.8c2.33,2.44,5.38,2.36,6.75,2.62,4.89.47,20.79.61,20.79.61S43.42,43,52,42.39a8.77,8.77,0,0,0,6.13-2.59c1.84-1.85,2.43-6.07,2.43-6.07a93.45,93.45,0,0,0,.61-9.9V19.17A93.79,93.79,0,0,0,60.51,9.27ZM24.23,29.43V12.25l16.52,8.62Z"/></g></g></svg>